# xmcd
#
# Track frame offsets:
#	150
#	15342
#	24990
#	36475
#	50357
#	74387
#	96867
#	109347
#
# Disc length: 1854 seconds
#
# Revision: 1
# Processed by: cddbd v1.5.2PL0 Copyright (c) Steve Scherf et al.
# Submitted via: audiograbber 1.83.01
#
DISCID=62073c08
DTITLE=Various Artist - Riversong Nov. 1994
DYEAR=1900
DGENRE=
TTITLE0=Gold City - Going, Going, Gone
TTITLE1=Greater Vision - God Will Provide
TTITLE2=KingsGold - I Wouldn't Take Nothing For My Journey Now
TTITLE3=Brush Arbor - Unbrokien Communion With You
TTITLE4=Gary Jones - Hark The Herald Sing
TTITLE5=Gary Jones - The Christmas Song
TTITLE6=Gary Jones - Angels We Have Heard On High
TTITLE7=Gary Jones - I'll Be Home For Christmas
EXTD=
EXTT0=
EXTT1=
EXTT2=
EXTT3=
EXTT4=
EXTT5=
EXTT6=
EXTT7=
PLAYORDER=
